<svg width="64" height="64" viewBox="0 0 64 64" fill="none" xmlns="http://www.w3.org/2000/svg">
<g clip-path="url(#clip0_100_5)">
<path d="M17.0078 10L-1.125 27.7118C-1.70349 28.3149 -2.0173 29.1153 -1.99926 29.9416C-2.00173 30.3578 -1.92005 30.7704 -1.75891 31.1558C-1.59777 31.5411 -1.36034 31.8916 -1.06024 32.1872L17.0726 49.8831L21.6544 45.4236L5.80433 29.9416L21.6544 14.4754L17.0078 10ZM46.9918 10L42.41 14.4754L58.2601 29.9416L42.41 45.4236L46.9918 49.8831L65.1246 32.1872C65.7071 31.5801 66.0212 30.7733 65.9989 29.9416C65.9996 29.1064 65.662 28.3048 65.0599 27.7118L46.9918 10Z" fill="#3882BE"/>
<path d="M32.8698 10.2166L24.7732 49.7594L31.1235 51L39.2201 11.4572L32.8698 10.2166Z" fill="#3882BE"/>
</g>
<defs>
<clipPath id="clip0_100_5">
<rect width="64" height="64" fill="white"/>
</clipPath>
</defs>
</svg>
