<svg width="200" height="174" viewBox="0 0 200 174" fill="none" xmlns="http://www.w3.org/2000/svg">
<path d="M180 173.34H20C8.95 173.34 0 164.39 0 153.34C0 142.29 8.95 133.34 20 133.34H180C191.05 133.34 200 142.29 200 153.34C200 164.39 191.05 173.34 180 173.34ZM180 106.67H20C8.95 106.67 0 97.72 0 86.67C0 75.62 8.95 66.67 20 66.67H180C191.05 66.67 200 75.62 200 86.67C200 97.72 191.05 106.67 180 106.67ZM180 40H20C8.95 40 0 31.05 0 20C0 8.95 8.95 0 20 0H180C191.05 0 200 8.95 200 20C200 31.05 191.05 40 180 40Z" fill="#FBFBFB"/>
</svg>
