<svg width="22" height="13" viewBox="0 0 22 13" fill="none" xmlns="http://www.w3.org/2000/svg">
<path d="M12.4093 6.2471C12.4093 9.69732 9.63137 12.4944 6.20454 12.4944C2.77771 12.4944 0 9.69816 0 6.2471C0 2.79604 2.77792 0 6.20454 0C9.63116 0 12.4093 2.79688 12.4093 6.2471ZM19.216 6.2471C19.216 9.49506 17.8269 12.1278 16.1136 12.1278C14.4003 12.1278 13.0112 9.49422 13.0112 6.2471C13.0112 2.99998 14.4003 0.366386 16.1136 0.366386C17.8269 0.366386 19.216 2.99998 19.216 6.2471ZM22 6.2471C22 9.15712 21.5114 11.516 20.9088 11.516C20.3063 11.516 19.8177 9.15627 19.8177 6.2471C19.8177 3.33792 20.3063 0.978223 20.9091 0.978223C21.5118 0.978223 22 3.33729 22 6.2471Z" fill="black"/>
</svg>
