<svg width="128" height="128" viewBox="0 0 128 128" fill="none" xmlns="http://www.w3.org/2000/svg">
<path d="M108.13 14H20.26C14.71 14 10.2 18.51 10.2 24.06V103.94C10.2 109.49 14.71 114 20.26 114H108.14C113.69 114 118.2 109.49 118.2 103.94V24.06C118.19 18.51 113.68 14 108.13 14ZM20.26 22H108.14C109.28 22 110.2 22.92 110.2 24.06V34H18.2V24.06C18.19 22.92 19.12 22 20.26 22ZM108.13 106H20.26C19.12 106 18.2 105.08 18.2 103.94V42H110.2V103.94C110.19 105.08 109.27 106 108.13 106ZM54.8499 74.99L36.8499 90.99C36.0899 91.67 35.14 92 34.2 92C33.1 92 31.9999 91.55 31.2099 90.66C29.7399 89.01 29.89 86.48 31.54 85.01L46.1699 72L31.54 58.99C29.89 57.52 29.7399 54.99 31.2099 53.34C32.6799 51.69 35.21 51.54 36.86 53.01L54.86 69.01C55.71 69.77 56.2 70.86 56.2 72C56.2 73.14 55.7099 74.23 54.8499 74.99ZM98.19 88C98.19 90.21 96.4 92 94.19 92H58.1899C55.9799 92 54.1899 90.21 54.1899 88C54.1899 85.79 55.9799 84 58.1899 84H94.19C96.4 84 98.19 85.79 98.19 88Z" fill="#40FF9F"/>
</svg>
